<svg id="a" xmlns="http://www.w3.org/2000/svg" xmlns:xlink="http://www.w3.org/1999/xlink" viewBox="0 0 39.73 51.38"><defs><clipPath id="b"><path d="M28.25,26.17c4.82,2.78,7.77,7.94,7.73,13.5,2.95-4.52,3.74-10.11,2.16-15.27-1.58-5.16-5.37-9.35-10.34-11.44-7.61-2.95-16.25-.79-21.58,5.38-5.34,6.17-6.22,15.03-2.2,22.13,4.02,7.1,12.06,10.92,20.1,9.53-5.71.19-11-3.01-13.47-8.16-5.91-12.3,5.69-22.55,17.6-15.67" style="clip-rule:evenodd; fill:none; stroke-width:0px;"/></clipPath><linearGradient id="c" x1="4.95" y1="40.73" x2="33.78" y2="21.34" gradientUnits="userSpaceOnUse"><stop offset="0" stop-color="#007b70"/><stop offset="1" stop-color="#aff022"/></linearGradient><linearGradient id="e" x1="-2722.59" y1="3385.68" x2="-2769.77" y2="3403.28" gradientTransform="translate(2779.67 -3369.39)" gradientUnits="userSpaceOnUse"><stop offset="0" stop-color="#fff"/><stop offset="1" stop-color="#000"/></linearGradient><mask id="d" x="1.51" y="11.65" width="37.43" height="36.76" maskUnits="userSpaceOnUse"><rect x="1.51" y="11.65" width="37.43" height="36.76" style="fill:url(#e); stroke-width:0px;"/></mask><linearGradient id="g" x1="-2768.6" y1="3402.57" x2="-2761.14" y2="3365.81" gradientTransform="translate(2779.67 -3347)" xlink:href="#e"/><mask id="f" x="1.51" y="11.65" width="29.09" height="38.63" maskUnits="userSpaceOnUse"><rect x="1.51" y="11.65" width="29.09" height="38.63" style="fill:url(#g); stroke-width:0px;"/></mask><clipPath id="h"><path d="M28.25,26.17c-11.91-6.88-23.51,3.37-17.6,15.67,1.5,3.12,4.03,5.52,7.05,6.89,1.97.89,4.16,1.34,6.42,1.27,5.58-1.15,11.72-6.86,11.3-14.6-1.07-3.84-3.61-7.18-7.16-9.23" style="clip-rule:evenodd; fill:none; stroke-width:0px;"/></clipPath><linearGradient id="i" x1="20.52" y1="47.19" x2="20.1" y2="24.5" gradientUnits="userSpaceOnUse"><stop offset="0" stop-color="#ffce4b"/><stop offset="1" stop-color="#c31656"/></linearGradient><linearGradient id="k" x1="-2861.78" y1="3385.29" x2="-2833.22" y2="3390.08" gradientTransform="translate(2870.9 -3350.39)" xlink:href="#e"/><mask id="j" x="9.1" y="23.95" width="24.79" height="26.04" maskUnits="userSpaceOnUse"><rect x="9.1" y="23.95" width="24.79" height="26.04" style="fill:url(#k); stroke-width:0px;"/></mask><linearGradient id="m" x1="-2929.77" y1="3405.42" x2="-2918.26" y2="3388.07" gradientTransform="translate(2945.54 -3350.3)" xlink:href="#e"/><mask id="l" x="15.3" y="31.29" width="20.13" height="18.71" maskUnits="userSpaceOnUse"><rect x="15.3" y="31.29" width="20.13" height="18.71" style="fill:url(#m); stroke-width:0px;"/></mask><clipPath id="n"><path d="M5.23.36c.3,3.36,2.03,6.43,4.75,8.42,2.72,1.99,6.17,2.72,9.46,1.99C19.55,3.47,14.81,0,5.23.36" style="clip-rule:evenodd; fill:none; stroke-width:0px;"/></clipPath><linearGradient id="o" x1="7.9" y1="9.88" x2="16.5" y2="1.97" xlink:href="#c"/><clipPath id="p"><path d="M27.45,5.5c-.15,1.68-1.01,3.21-2.37,4.21-1.36,1-3.08,1.36-4.73,1-.06-3.65,2.31-5.39,7.1-5.21" style="clip-rule:evenodd; fill:none; stroke-width:0px;"/></clipPath><linearGradient id="q" x1="26.11" y1="10.27" x2="21.81" y2="6.31" xlink:href="#c"/></defs><g style="clip-path:url(#b);"><rect y="10.01" width="39.73" height="41.38" style="fill:url(#c); stroke-width:0px;"/></g><g style="mask:url(#d);"><path d="M26.88,19.85c7.76,3.2,11.73,11.85,9.1,19.82,2.95-4.52,3.74-10.11,2.16-15.27-1.58-5.16-5.37-9.35-10.34-11.44-7.61-2.95-16.25-.79-21.58,5.38-5.34,6.17-6.22,15.03-2.2,22.13,2.01,3.55,5.02,6.28,8.54,7.95-7.2-4.3-9.87-13.43-6.11-20.93,3.76-7.5,12.67-10.83,20.43-7.63" style="fill:#fff000; fill-rule:evenodd; stroke-width:0px;"/></g><g style="mask:url(#f);"><path d="M11.93,18.68c4.93-4.82,12.15-6.46,18.68-4.25-.88-.57-1.82-1.07-2.81-1.48-7.61-2.95-16.25-.79-21.58,5.38-5.34,6.17-6.22,15.03-2.2,22.13,2.01,3.55,5.02,6.28,8.54,7.95,3.52,1.67,7.54,2.27,11.56,1.58-.83.03-1.65-.02-2.46-.13-1.38-.19-2.71-.58-3.96-1.14-4.95-2.06-8.83-6.22-10.47-11.47-1.18-3.8-1.08-7.79.16-11.41.91-2.66,2.44-5.12,4.53-7.16" style="fill:#005b50; fill-rule:evenodd; stroke-width:0px;"/></g><g style="clip-path:url(#h);"><rect x="4.74" y="19.29" width="31.1" height="30.78" style="fill:url(#i); stroke-width:0px;"/></g><g style="mask:url(#j);"><path d="M12.17,38.39c-.1-6.15,4.53-11.35,10.66-11.96,4.51-.45,8.71,1.7,11.06,5.28-1.33-2.26-3.24-4.18-5.59-5.54-11.91-6.88-23.51,3.37-17.6,15.67,1.5,3.12,4.03,5.52,7.05,6.89,1.7.77,3.55,1.21,5.47,1.27-6.14-.41-10.94-5.45-11.04-11.61" style="fill:#860000; fill-rule:evenodd; stroke-width:0px;"/></g><g style="mask:url(#l);"><path d="M32.56,34.66c-2.75,6.84-8.96,11.62-16.19,12.58,1.87,1.58,4.23,2.59,6.84,2.76-1.92-.06-3.77-.5-5.47-1.27-.84-.38-1.65-.84-2.4-1.38-.01,0-.02,0-.04,0,.75.53,1.56.99,2.4,1.38,1.97.89,4.16,1.34,6.42,1.27,5.58-1.15,11.72-6.86,11.3-14.6-.41-1.46-1.02-2.84-1.83-4.11-.24,1.14-.58,2.26-1.02,3.37" style="fill:#fff000; fill-rule:evenodd; stroke-width:0px;"/></g><g style="clip-path:url(#n);"><rect x="5.23" width="14.32" height="11.5" style="fill:url(#o); stroke-width:0px;"/></g><g style="clip-path:url(#p);"><rect x="20.29" y="5.33" width="7.16" height="5.75" style="fill:url(#q); stroke-width:0px;"/></g></svg>