<svg id="a" xmlns="http://www.w3.org/2000/svg" xmlns:xlink="http://www.w3.org/1999/xlink" viewBox="0 0 67 29.24"><defs><clipPath id="b"><path d="M16.08,14.89c2.74,1.58,4.42,4.52,4.4,7.68,1.68-2.57,2.13-5.75,1.23-8.69-.9-2.94-3.06-5.32-5.89-6.51-4.33-1.68-9.25-.45-12.28,3.06-3.04,3.51-3.54,8.55-1.25,12.6,2.29,4.04,6.86,6.21,11.44,5.42-3.25.11-6.26-1.71-7.67-4.64-3.36-7,3.24-12.83,10.02-8.92" style="clip-rule:evenodd; fill:none; stroke-width:0px;"/></clipPath><linearGradient id="c" x1="2.82" y1="23.18" x2="19.22" y2="12.14" gradientUnits="userSpaceOnUse"><stop offset="0" stop-color="#007b70"/><stop offset="1" stop-color="#aff022"/></linearGradient><linearGradient id="e" x1="-2747.19" y1="3378.66" x2="-2774.03" y2="3388.67" gradientTransform="translate(2779.67 -3369.39)" gradientUnits="userSpaceOnUse"><stop offset="0" stop-color="#fff"/><stop offset="1" stop-color="#000"/></linearGradient><mask id="d" x=".86" y="6.63" width="21.3" height="20.92" maskUnits="userSpaceOnUse"><rect x=".86" y="6.63" width="21.3" height="20.92" style="fill:url(#e); stroke-width:0px;"/></mask><linearGradient id="g" x1="-2773.37" y1="3378.62" x2="-2769.13" y2="3357.7" gradientTransform="translate(2779.67 -3347)" xlink:href="#e"/><mask id="f" x=".86" y="6.63" width="16.56" height="21.98" maskUnits="userSpaceOnUse"><rect x=".86" y="6.63" width="16.56" height="21.98" style="fill:url(#g); stroke-width:0px;"/></mask><clipPath id="h"><path d="M16.08,14.89c-6.78-3.91-13.38,1.92-10.02,8.92.85,1.77,2.29,3.14,4.01,3.92,1.12.51,2.37.77,3.65.72,3.18-.65,6.67-3.91,6.43-8.31-.61-2.19-2.06-4.09-4.08-5.25" style="clip-rule:evenodd; fill:none; stroke-width:0px;"/></clipPath><linearGradient id="i" x1="11.67" y1="26.85" x2="11.44" y2="13.94" gradientUnits="userSpaceOnUse"><stop offset="0" stop-color="#ffce4b"/><stop offset="1" stop-color="#c31656"/></linearGradient><linearGradient id="k" x1="-2865.71" y1="3370.25" x2="-2849.46" y2="3372.97" gradientTransform="translate(2870.9 -3350.39)" xlink:href="#e"/><mask id="j" x="5.18" y="13.63" width="14.1" height="14.82" maskUnits="userSpaceOnUse"><rect x="5.18" y="13.63" width="14.1" height="14.82" style="fill:url(#k); stroke-width:0px;"/></mask><linearGradient id="m" x1="-2936.56" y1="3381.67" x2="-2930.01" y2="3371.8" gradientTransform="translate(2945.54 -3350.3)" xlink:href="#e"/><mask id="l" x="8.71" y="17.81" width="11.46" height="10.65" maskUnits="userSpaceOnUse"><rect x="8.71" y="17.81" width="11.46" height="10.65" style="fill:url(#m); stroke-width:0px;"/></mask><clipPath id="n"><path d="M2.98.2c.17,1.91,1.15,3.66,2.7,4.79,1.55,1.14,3.51,1.55,5.38,1.13C11.13,1.98,8.43,0,2.98.2" style="clip-rule:evenodd; fill:none; stroke-width:0px;"/></clipPath><linearGradient id="o" x1="4.49" y1="5.62" x2="9.39" y2="1.12" xlink:href="#c"/><clipPath id="p"><path d="M15.62,3.13c-.08.96-.58,1.83-1.35,2.4-.77.57-1.75.77-2.69.57-.03-2.08,1.31-3.07,4.04-2.96" style="clip-rule:evenodd; fill:none; stroke-width:0px;"/></clipPath><linearGradient id="q" x1="14.86" y1="5.84" x2="12.41" y2="3.59" xlink:href="#c"/></defs><g style="clip-path:url(#b);"><rect y="5.7" width="22.61" height="23.55" style="fill:url(#c); stroke-width:0px;"/></g><g style="mask:url(#d);"><path d="M15.3,11.3c4.41,1.82,6.67,6.74,5.18,11.28,1.68-2.57,2.13-5.75,1.23-8.69-.9-2.94-3.06-5.32-5.89-6.51-4.33-1.68-9.25-.45-12.28,3.06-3.04,3.51-3.54,8.55-1.25,12.6,1.14,2.02,2.86,3.57,4.86,4.52-4.1-2.45-5.62-7.64-3.48-11.91,2.14-4.27,7.21-6.16,11.63-4.34" style="fill:#fff000; fill-rule:evenodd; stroke-width:0px;"/></g><g style="mask:url(#f);"><path d="M6.79,10.63c2.81-2.74,6.92-3.67,10.63-2.42-.5-.32-1.04-.61-1.6-.84-4.33-1.68-9.25-.45-12.28,3.06-3.04,3.51-3.54,8.55-1.25,12.6,1.14,2.02,2.86,3.57,4.86,4.52,2,.95,4.29,1.29,6.58.9-.47.02-.94,0-1.4-.07-.78-.11-1.54-.33-2.25-.65-2.82-1.17-5.02-3.54-5.96-6.53-.67-2.16-.62-4.43.09-6.5.52-1.51,1.39-2.92,2.58-4.08" style="fill:#005b50; fill-rule:evenodd; stroke-width:0px;"/></g><g style="clip-path:url(#h);"><rect x="2.7" y="10.98" width="17.7" height="17.52" style="fill:url(#i); stroke-width:0px;"/></g><g style="mask:url(#j);"><path d="M6.92,21.85c-.06-3.5,2.58-6.46,6.06-6.81,2.56-.25,4.96.97,6.29,3.01-.76-1.29-1.84-2.38-3.18-3.15-6.78-3.91-13.38,1.92-10.02,8.92.85,1.77,2.29,3.14,4.01,3.92.97.44,2.02.69,3.11.72-3.49-.23-6.23-3.1-6.28-6.6" style="fill:#860000; fill-rule:evenodd; stroke-width:0px;"/></g><g style="mask:url(#l);"><path d="M18.53,19.72c-1.56,3.89-5.1,6.61-9.21,7.16,1.06.9,2.41,1.47,3.89,1.57-1.09-.03-2.15-.29-3.11-.72-.48-.22-.94-.48-1.37-.78,0,0-.01,0-.02,0,.43.3.89.57,1.37.78,1.12.51,2.37.77,3.65.72,3.18-.65,6.67-3.91,6.43-8.31-.23-.83-.58-1.62-1.04-2.34-.14.65-.33,1.29-.58,1.92" style="fill:#fff000; fill-rule:evenodd; stroke-width:0px;"/></g><g style="clip-path:url(#n);"><rect x="2.98" width="8.15" height="6.55" style="fill:url(#o); stroke-width:0px;"/></g><g style="clip-path:url(#p);"><rect x="11.54" y="3.03" width="4.07" height="3.27" style="fill:url(#q); stroke-width:0px;"/></g><path d="M25.05,6.73c.63-.47,1.53-.71,2.66-.71,1.79,0,2.83.51,3.41,1.62.16.3.06.52-.29.65l-1.22.5c-.33.14-.46.09-.66-.24-.21-.4-.62-.6-1.23-.6-.77,0-1.16.2-1.16.6,0,.45.51.58,1.6.71.76.09,1.05.13,1.75.39.33.13.59.29.78.46.39.36.72,1.01.72,1.84s-.35,1.47-1.05,1.93c-.71.47-1.62.71-2.73.71-1.9,0-3.09-.6-3.55-1.79-.13-.36-.02-.51.33-.64l1.15-.39c.35-.13.54-.07.72.25.22.4.68.61,1.38.61.87,0,1.31-.22,1.31-.66,0-.42-.46-.55-1.43-.68-.5-.07-.5-.06-1-.16-.23-.03-.4-.08-.53-.12-.26-.08-.72-.24-.95-.42-.23-.17-.55-.44-.68-.76-.15-.31-.27-.72-.27-1.21,0-.77.32-1.41.96-1.88Z" style="fill:#007b70; stroke-width:0px;"/><path d="M32.18,6.66c0-.34.13-.46.49-.46h1.44c.35,0,.49.13.49.46v7.28c0,.34-.13.46-.49.46h-1.44c-.35,0-.49-.13-.49-.46v-7.28Z" style="fill:#007b70; stroke-width:0px;"/><path d="M44.16,6.18c.39,0,.53.12.53.49v7.26c0,.36-.13.47-.53.47h-1.33c-.39,0-.51-.12-.51-.47v-1.65c0-.83.18-1.84.54-3.03h-.13c-.06.2-.18.51-.37.94-.18.43-.33.75-.45.97l-.68,1.31c-.15.24-.28.34-.59.34h-.82c-.33,0-.45-.07-.59-.34l-.72-1.31c-.26-.43-.5-1.06-.76-1.91h-.12c.33,1.26.5,2.28.5,3.04v1.64c0,.36-.13.47-.52.47h-1.25c-.39,0-.53-.12-.53-.47v-7.26c0-.37.13-.49.53-.49h1.15c.43,0,.54.07.72.36l2.01,3.74,2.01-3.73c.16-.31.28-.37.68-.37h1.22Z" style="fill:#007b70; stroke-width:0px;"/><path d="M49.8,6.19c1.92,0,3.15,1.07,3.15,2.89s-1.21,2.85-3.13,2.85h-1.5v1.98c0,.36-.12.49-.51.49h-1.38c-.39,0-.53-.13-.53-.49v-7.24c0-.36.13-.49.53-.49h3.37ZM49.53,9.92c.57,0,.92-.34.92-.84s-.34-.86-.92-.86h-1.21v1.7h1.21Z" style="fill:#007b70; stroke-width:0px;"/><path d="M55.71,6.19c.39,0,.51.13.51.49v5.7h2.94c.38,0,.51.12.51.49v1.05c0,.36-.13.49-.51.49h-4.83c-.39,0-.53-.13-.53-.49v-7.24c0-.36.13-.49.53-.49h1.38Z" style="fill:#007b70; stroke-width:0px;"/><path d="M66.06,6.19c.39,0,.52.13.52.49v1.04c0,.37-.13.5-.52.5h-3.22v1.03h2.58c.39,0,.53.13.53.49v1.04c0,.37-.13.5-.53.5h-2.58v1.11h3.33c.38,0,.51.12.51.49v1.05c0,.36-.13.49-.51.49h-5.23c-.39,0-.53-.13-.53-.49v-7.24c0-.36.13-.49.53-.49h5.12Z" style="fill:#007b70; stroke-width:0px;"/><path d="M30.18,14.97c3.95,0,6.22,2.01,6.22,5.37v2.87c0,3.32-2.27,5.37-6.22,5.37h-4.94c-.65,0-.87-.21-.87-.8v-12c0-.59.22-.8.87-.8h4.94ZM32.38,20.4c0-1.38-.79-2.07-2.35-2.07h-1.66v6.9h1.66c1.56,0,2.35-.69,2.35-2.07v-2.76Z" style="fill:#007b70; stroke-width:0px;"/><path d="M38.07,15.74c0-.56.22-.77.81-.77h2.39c.59,0,.81.21.81.77v12.07c0,.56-.22.77-.81.77h-2.39c-.59,0-.81-.21-.81-.77v-12.07Z" style="fill:#007b70; stroke-width:0px;"/><path d="M53.48,14.97c.65,0,.87.21.87.8v1.72c0,.61-.22.82-.87.82h-5.35v1.71h4.27c.65,0,.87.21.87.8v1.72c0,.61-.22.82-.87.82h-4.27v1.84h5.53c.63,0,.85.19.85.81v1.74c0,.59-.22.8-.85.8h-8.67c-.65,0-.87-.21-.87-.8v-12c0-.59.22-.8.87-.8h8.48Z" style="fill:#007b70; stroke-width:0px;"/><path d="M66.13,14.97c.65,0,.87.21.87.8v1.72c0,.61-.22.82-.87.82h-3v9.45c0,.59-.22.8-.87.8h-2.29c-.65,0-.85-.21-.85-.8v-9.45h-3.02c-.65,0-.85-.21-.85-.82v-1.72c0-.59.2-.8.85-.8h10.02Z" style="fill:#007b70; stroke-width:0px;"/></svg>